<?xml version="1.0" standalone="no"?><!DOCTYPE svg PUBLIC "-//W3C//DTD SVG 1.1//EN" "http://www.w3.org/Graphics/SVG/1.1/DTD/svg11.dtd"><svg t="1648533842350" class="icon" viewBox="0 0 1024 1024" version="1.1" xmlns="http://www.w3.org/2000/svg" p-id="3335" xmlns:xlink="http://www.w3.org/1999/xlink" width="200" height="200"><defs><style type="text/css">@font-face { font-family: feedback-iconfont; src: url("//at.alicdn.com/t/font_1031158_u69w8yhxdu.woff2?t=1630033759944") format("woff2"), url("//at.alicdn.com/t/font_1031158_u69w8yhxdu.woff?t=1630033759944") format("woff"), url("//at.alicdn.com/t/font_1031158_u69w8yhxdu.ttf?t=1630033759944") format("truetype"); }
</style></defs><path d="M172.99330347 116.4921875h678.01339307a56.50111596 56.50111596 0 0 1 56.50111596 56.50111596v226.00446462a56.50111596 56.50111596 0 0 1-56.50111596 56.50111596H172.99330347a56.50111596 56.50111596 0 0 1-56.50111597-56.50111596V172.99330347a56.50111596 56.50111596 0 0 1 56.50111596-56.50111597z m84.75167432 113.00223192a28.25055836 28.25055836 0 0 0-1e-8 56.50111596h169.50334789a28.25055836 28.25055836 0 0 0 0-56.50111596h-169.50334789zM172.99330347 568.50111596h678.01339307a56.50111596 56.50111596 0 0 1 56.50111596 56.50111597v226.00446461a56.50111596 56.50111596 0 0 1-56.50111596 56.50111596H172.99330347a56.50111596 56.50111596 0 0 1-56.50111597-56.50111596V625.00223192a56.50111596 56.50111596 0 0 1 56.50111596-56.50111595z m84.75167432 113.00223192a28.25055836 28.25055836 0 1 0-1e-8 56.50111674h169.50334789a28.25055836 28.25055836 0 1 0 0-56.50111673h-169.50334789z" fill="#2e95ff" p-id="3336"></path></svg>