<?xml version="1.0" standalone="no"?><!DOCTYPE svg PUBLIC "-//W3C//DTD SVG 1.1//EN" "http://www.w3.org/Graphics/SVG/1.1/DTD/svg11.dtd"><svg t="1648263735878" class="icon" viewBox="0 0 1024 1024" version="1.1" xmlns="http://www.w3.org/2000/svg" p-id="3212" xmlns:xlink="http://www.w3.org/1999/xlink" width="200" height="200"><defs><style type="text/css">@font-face { font-family: feedback-iconfont; src: url("//at.alicdn.com/t/font_1031158_u69w8yhxdu.woff2?t=1630033759944") format("woff2"), url("//at.alicdn.com/t/font_1031158_u69w8yhxdu.woff?t=1630033759944") format("woff"), url("//at.alicdn.com/t/font_1031158_u69w8yhxdu.ttf?t=1630033759944") format("truetype"); }
</style></defs><path d="M349.184 166.4h325.632c22.528 0 40.448-18.432 40.448-40.448v-81.92h-121.856V29.184c0-14.336-11.776-25.6-25.6-25.6H456.192c-14.336 0-25.6 11.776-25.6 25.6v14.848H308.736v81.408c0 22.528 17.92 40.96 40.448 40.96z" fill="#f24e4c" p-id="3213"></path><path d="M878.592 44.032h-81.408v142.336c0 33.792-27.648 60.928-60.928 60.928H288.256c-33.792 0-60.928-27.648-60.928-60.928V44.032H145.92c-44.544 0-81.408 36.352-81.408 81.408v814.08c0 44.544 36.352 81.408 81.408 81.408h732.672c44.544 0 81.408-36.352 81.408-81.408v-814.08c-0.512-44.544-36.864-81.408-81.408-81.408zM662.016 711.68c12.8 12.8 12.8 34.304 0 47.104-6.656 6.656-14.848 9.728-23.552 9.728s-16.896-3.072-23.552-9.728L512 655.872l-103.424 103.424c-6.656 6.656-14.848 9.728-23.552 9.728-8.704 0-16.896-3.072-23.552-9.728-12.8-12.8-12.8-34.304 0-47.104l103.424-103.424-102.912-103.424c-12.8-12.8-12.8-34.304 0-47.104 12.8-12.8 34.304-12.8 47.104 0l103.424 103.424 103.424-103.424c12.8-12.8 34.304-12.8 47.104 0 12.8 12.8 12.8 34.304 0 47.104l-103.424 103.424 102.4 102.912z" fill="#f24e4c" p-id="3214"></path></svg>