<?xml version="1.0" standalone="no"?><!DOCTYPE svg PUBLIC "-//W3C//DTD SVG 1.1//EN" "http://www.w3.org/Graphics/SVG/1.1/DTD/svg11.dtd"><svg t="1648263777575" class="icon" viewBox="0 0 1024 1024" version="1.1" xmlns="http://www.w3.org/2000/svg" p-id="3923" xmlns:xlink="http://www.w3.org/1999/xlink" width="200" height="200"><defs><style type="text/css">@font-face { font-family: feedback-iconfont; src: url("//at.alicdn.com/t/font_1031158_u69w8yhxdu.woff2?t=1630033759944") format("woff2"), url("//at.alicdn.com/t/font_1031158_u69w8yhxdu.woff?t=1630033759944") format("woff"), url("//at.alicdn.com/t/font_1031158_u69w8yhxdu.ttf?t=1630033759944") format("truetype"); }
</style></defs><path d="M812.28196924 480.57468387H654.46032981c-10.42842865-26.39696002-33.0541216-45.15845678-59.96346474-45.15845677h-141.62142179c-26.44406108 0-49.48857152 18.76149676-59.96410124 45.15845677H211.76385882C197.79712236 480.57468387 186.11160469 494.26199649 186.11160469 510.46348714c0 16.75970183 11.73198223 29.93463131 25.60578955 29.9346313h180.35567629c9.54369258 28.39939145 33.42647454 48.09208883 60.80109975 48.09208884h141.7149874c27.79344271 0 51.21094263-19.69269739 60.80109975-48.09145233h156.89107531c13.92027189 0 25.60642606-13.22203054 25.60642606-29.93526781 0-16.20149065-11.68615418-29.88880326-25.60642606-29.88880326h0.00127302z m1e-8 249.35172348H654.46032981c-10.00961115-26.39696002-33.0541216-45.11262873-59.96346474-45.11262872h-141.62142179c-26.90934314 0-49.48857152 18.71566869-59.96410124 45.11262871H211.76385882C197.79712236 729.92640735 186.11160469 743.61371996 186.11160469 759.81457411c0 16.76033834 11.73198223 29.9352678 25.60578955 29.9352678h180.35567629c9.59015713 28.3522904 33.0541216 48.1385534 60.80109975 48.1385534h141.7149874c27.79344271 0 51.21094263-19.786263 61.26701832-48.1385534h156.42642976c13.92027189 0 25.60515306-13.17556598 25.60515304-29.93463131 0-16.20149065-11.68488117-29.88880326-25.60515305-29.88880325zM211.71803076 291.55941461h180.35503977c9.54369258 27.88700833 33.0547581 47.67327134 60.80173625 47.67327132h141.7143509c27.79407922 0 51.21094263-19.786263 61.26701832-47.67327133h156.42642976c13.92027189 0 25.60578955-13.6873126 25.60578955-30.44701443 0-16.20149065-11.68551767-29.88880326-25.60578956-29.88880326H654.46032981C644.49718322 204.87373796 621.45203626 186.11160469 594.54332964 186.11160469H452.87480678c-26.90870664 0-49.48793502 18.76213327-59.96346474 45.15909328H211.76385882c-14.013201 0-25.65161761 13.59374699-25.65161762 29.79460114 0 16.76033834 11.73198223 30.44765092 25.60515304 30.44765093v0.04646456z" fill="#445cdb" p-id="3924"></path></svg>