<?xml version="1.0" standalone="no"?><!DOCTYPE svg PUBLIC "-//W3C//DTD SVG 1.1//EN" "http://www.w3.org/Graphics/SVG/1.1/DTD/svg11.dtd"><svg t="1648523613337" class="icon" viewBox="0 0 1024 1024" version="1.1" xmlns="http://www.w3.org/2000/svg" p-id="3305" xmlns:xlink="http://www.w3.org/1999/xlink" width="200" height="200"><defs><style type="text/css">@font-face { font-family: feedback-iconfont; src: url("//at.alicdn.com/t/font_1031158_u69w8yhxdu.woff2?t=1630033759944") format("woff2"), url("//at.alicdn.com/t/font_1031158_u69w8yhxdu.woff?t=1630033759944") format("woff"), url("//at.alicdn.com/t/font_1031158_u69w8yhxdu.ttf?t=1630033759944") format("truetype"); }
</style></defs><path d="M512 62C347.42375 100.25 227.49875 142.3925 118.53125 177.7175c0 117.46125 0.1575 210.4875 0.1575 308.565C118.68875 762.59375 339.11 914.60375 512 962c172.89-47.39625 393.3-199.395 393.3-475.70625 0-98.08875 0.1575-191.115 0.1575-308.57625C796.50125 142.3925 676.57625 100.25 512 62zM637.49375 669.5l-126.1575-67.7925L385.1675 669.5l24.0975-143.65125-102.015-101.71125 141.06375-20.95875 63.07875-130.7025 63.07875 130.7025 141.0075 20.95875-102.07125 101.745z" fill="#2e95ff" p-id="3306"></path></svg>