<?xml version="1.0" standalone="no"?><!DOCTYPE svg PUBLIC "-//W3C//DTD SVG 1.1//EN" "http://www.w3.org/Graphics/SVG/1.1/DTD/svg11.dtd"><svg t="1650190120021" class="icon" viewBox="0 0 1026 1024" version="1.1" xmlns="http://www.w3.org/2000/svg" p-id="4632" xmlns:xlink="http://www.w3.org/1999/xlink" width="200.390625" height="200"><defs><style type="text/css">@font-face { font-family: feedback-iconfont; src: url("//at.alicdn.com/t/font_1031158_u69w8yhxdu.woff2?t=1630033759944") format("woff2"), url("//at.alicdn.com/t/font_1031158_u69w8yhxdu.woff?t=1630033759944") format("woff"), url("//at.alicdn.com/t/font_1031158_u69w8yhxdu.ttf?t=1630033759944") format("truetype"); }
</style></defs><path d="M832.24098433 164.38571167c16.00763798 0 29.00146008 12.86172866 29.11791087 28.85198593 0.09211778 15.83383084-12.68270731 28.75813008-28.53565693 28.85198593h-58.57822181v79.25605775c0 92.17514276-58.00292015 171.029706-142.10819721 210.65425872 84.10527706 39.22132014 142.10819722 118.47911597 142.10819722 210.65425873v79.25779582h58.00292016c15.95375776 0 28.88500929 12.91560889 28.88500928 28.85024785 0 15.93637705-12.93125153 28.85198593-28.88500928 28.85198593H194.08719766l-5.22290466-0.46580315c-15.73649883-2.40549087-26.54556514-17.09914685-24.13659812-32.81826496 2.20735073-14.42077876 14.8744154-24.91525412 29.47595359-24.42685604h58.46872329v-79.24215316c0-92.17340469 57.94730186-171.02796793 142.10819721-210.65425874-84.15915728-39.22132014-142.10819722-118.47911597-142.10819721-210.65425873V222.08968353h-58.4687233c-15.95549583 0-28.88500929-12.91387081-28.8850093-28.85198593C165.31863916 177.30305863 178.2498907 164.38571167 194.20364846 164.38571167h638.03733586z m-116.01279259 57.70397187H310.49627054v78.85282516c0 68.65556002 43.3318591 131.80664778 110.02861262 163.55426074 20.18943787 10.60223579 31.73023224 29.08314943 31.73023225 47.51018285 0.58225394 20.95766544-12.13869095 39.99823808-31.73023225 47.51192093-66.29352093 31.74761296-110.02861261 94.89870071-109.9747324 163.55426073v79.60714817h32.30379582V769.07814693c0-61.99527025 22.85563945-129.95212555 93.73419285-171.26086949l11.60162686-6.3178897c26.45344734-11.41043901 48.14110279-35.57484626 65.02125263-72.42022275 13.34143638 34.12181855 35.96417427 58.28448773 67.97945023 72.42022275 87.00438023 44.90307569 100.75078726 112.39412785 100.75078727 177.57180691v33.6003971h34.27824497v-79.20391559c0-68.65382195-43.26928854-131.80664778-109.9747324-163.61509323-20.1807475-10.60223579-31.72849417-29.02926922-31.72849417-47.51018285 0-21.14537716 11.5390563-39.57241058 31.72849417-47.44935036 66.29352093-31.69373274 109.97473239-94.8448205 109.9747324-163.55426074V222.08794545h0.00869035zM675.91883887 338.19285583c0 37.660532-46.3995552 79.84004974-89.66884374 97.73870945-25.86945534 10.72042465-50.23200273 30.87857723-73.02333356 60.49010038-21.58163309-29.60457086-45.24373769-49.76967573-70.82641125-60.48141003-46.2292242-19.35168743-85.782516-58.10720444-85.782516-97.7404475h319.30110455V338.19285583z" fill="#ffa854" p-id="4633"></path></svg>