<?xml version="1.0" standalone="no"?><!DOCTYPE svg PUBLIC "-//W3C//DTD SVG 1.1//EN" "http://www.w3.org/Graphics/SVG/1.1/DTD/svg11.dtd"><svg t="1648263744946" class="icon" viewBox="0 0 1024 1024" version="1.1" xmlns="http://www.w3.org/2000/svg" p-id="3354" xmlns:xlink="http://www.w3.org/1999/xlink" width="200" height="200"><defs><style type="text/css">@font-face { font-family: feedback-iconfont; src: url("//at.alicdn.com/t/font_1031158_u69w8yhxdu.woff2?t=1630033759944") format("woff2"), url("//at.alicdn.com/t/font_1031158_u69w8yhxdu.woff?t=1630033759944") format("woff"), url("//at.alicdn.com/t/font_1031158_u69w8yhxdu.ttf?t=1630033759944") format("truetype"); }
</style></defs><path d="M644.627 840.19c-0.129 65.985-58.953 119.437-132.627 119.437-73.167 0-132.498-53.233-132.632-119.437h265.259z m-44.211-696.244c0-43.862-39.585-79.573-88.416-79.573-48.737 0-88.421 35.631-88.421 79.573 0 4.476 0.413 8.868 1.204 13.15-122.098 38.302-222.257 155.924-222.257 295.076v109.564s0 157.779-43.072 159.156c-25.674 0-45.345 17.811-45.345 39.784 0 22.133 19.785 39.789 44.206 39.789h707.37c24.53 0 44.206-17.811 44.206-39.789 0-22.128-19.79-39.784-44.206-39.784-44.216 0-44.216-158.057-44.216-158.057V452.192c0-139.341-93.654-257.008-222.237-295.2a71.942 71.942 0 0 0 1.184-13.046z" fill="#f24e4c" p-id="3355"></path></svg>