<?xml version="1.0" standalone="no"?><!DOCTYPE svg PUBLIC "-//W3C//DTD SVG 1.1//EN" "http://www.w3.org/Graphics/SVG/1.1/DTD/svg11.dtd"><svg t="1648523624917" class="icon" viewBox="0 0 1024 1024" version="1.1" xmlns="http://www.w3.org/2000/svg" p-id="3587" xmlns:xlink="http://www.w3.org/1999/xlink" width="200" height="200"><defs><style type="text/css">@font-face { font-family: feedback-iconfont; src: url("//at.alicdn.com/t/font_1031158_u69w8yhxdu.woff2?t=1630033759944") format("woff2"), url("//at.alicdn.com/t/font_1031158_u69w8yhxdu.woff?t=1630033759944") format("woff"), url("//at.alicdn.com/t/font_1031158_u69w8yhxdu.ttf?t=1630033759944") format("truetype"); }
</style></defs><path d="M160.9 346H863c52.8 0 95.7-42.9 95.7-95.7s-42.9-95.7-95.7-95.7H160.9c-52.8 0-95.7 42.9-95.7 95.7s42.9 95.7 95.7 95.7z m473.4-127.7h228.8c17.6 0 31.9 14.3 31.9 31.9 0 17.6-14.3 31.9-31.9 31.9H634.3v-63.8zM863.1 416.8H160.9c-52.8 0-95.7 42.9-95.7 95.7s42.9 95.7 95.7 95.7H863c52.8 0 95.7-42.9 95.7-95.7s-42.8-95.7-95.6-95.7z m0 127.6H506.6v-63.8H863c17.6 0 31.9 14.3 31.9 31.9s-14.2 31.9-31.8 31.9zM863.1 678H160.9c-52.8 0-95.7 42.9-95.7 95.7 0 52.8 42.9 95.7 95.7 95.7H863c52.8 0 95.7-42.9 95.7-95.7 0.1-52.7-42.8-95.7-95.6-95.7z m0 127.7h-165v-63.8H863c17.6 0 31.9 14.3 31.9 31.9 0.1 17.6-14.2 31.9-31.8 31.9z" fill="#2e95ff" p-id="3588"></path></svg>