<?xml version="1.0" standalone="no"?><!DOCTYPE svg PUBLIC "-//W3C//DTD SVG 1.1//EN" "http://www.w3.org/Graphics/SVG/1.1/DTD/svg11.dtd"><svg t="1648523619420" class="icon" viewBox="0 0 1024 1024" version="1.1" xmlns="http://www.w3.org/2000/svg" p-id="3446" xmlns:xlink="http://www.w3.org/1999/xlink" width="200" height="200"><defs><style type="text/css">@font-face { font-family: feedback-iconfont; src: url("//at.alicdn.com/t/font_1031158_u69w8yhxdu.woff2?t=1630033759944") format("woff2"), url("//at.alicdn.com/t/font_1031158_u69w8yhxdu.woff?t=1630033759944") format("woff"), url("//at.alicdn.com/t/font_1031158_u69w8yhxdu.ttf?t=1630033759944") format("truetype"); }
</style></defs><path d="M949.060367 646.083765c12.288 9.035294 25.660235 21.263059 35.659294 42.646588 10.059294 18.010353 12.288 43.791059 4.457412 66.258823-7.830588 23.612235-22.287059 42.646588-38.972235 58.428236a342.919529 342.919529 0 0 1-55.717647 41.441882c-80.233412 48.248471-115.892706 75.173647-198.294589 93.184-35.659294 6.746353-33.671529 12.348235-63.728941 15.721412v-120.470588c25.6 0.361412 19.154824 0.361412 49.212235-1.92753 76.920471-4.457412 109.206588-15.721412 183.838118-43.730823 36.743529-14.637176 71.318588-33.731765 85.775059-59.512471a51.621647 51.621647 0 0 0 5.601882-40.357647 110.290824 110.290824 0 0 0-21.202823-37.044706 270.998588 270.998588 0 0 0-52.344471-44.875294c-14.456471-9.035294-22.287059-13.492706-22.287059-13.492706s8.914824 2.228706 24.515765 9.035294c15.661176 6.686118 38.972235 15.600941 63.488 34.69553z m-614.4 189.138823c21.985882 1.084235 42.887529 2.168471 62.584471 2.168471v-60.717177l143.119058 123.663059L397.365308 1024v-70.656a1127.604706 1127.604706 0 0 1-77.101176-13.251765c-81.438118-17.769412-112.64-44.152471-191.909647-91.617882a288.527059 288.527059 0 0 1-53.910589-40.839529c-16.504471-16.564706-31.924706-35.297882-39.634823-57.404236a87.883294 87.883294 0 0 1 3.312941-65.114353c8.794353-17.588706 21.985882-29.756235 34.153412-39.755294 25.298824-18.672941 47.284706-27.527529 62.704941-34.153412 15.420235-6.625882 24.214588-8.854588 24.214588-8.854588s-8.794353 4.397176-21.985882 13.251765c-14.336 9.999059-34.153412 23.130353-51.802353 44.15247a90.352941 90.352941 0 0 0-19.757176 36.382118 45.839059 45.839059 0 0 0 5.481411 39.755294c15.420235 24.274824 49.573647 44.092235 85.89553 57.344 73.728 27.587765 101.616941 37.526588 177.573647 41.923765zM511.993073 722.823529A361.411765 361.411765 0 1 1 511.993073 0a361.411765 361.411765 0 0 1 0 722.823529z m0-180.705882a180.705882 180.705882 0 1 0 0-361.411765 180.705882 180.705882 0 0 0 0 361.411765z m0-120.470588a60.235294 60.235294 0 1 1 0-120.470588 60.235294 60.235294 0 0 1 0 120.470588z" fill="#2e95ff" p-id="3447"></path></svg>