<?xml version="1.0" standalone="no"?><!DOCTYPE svg PUBLIC "-//W3C//DTD SVG 1.1//EN" "http://www.w3.org/Graphics/SVG/1.1/DTD/svg11.dtd"><svg t="1648263760541" class="icon" viewBox="0 0 1024 1024" version="1.1" xmlns="http://www.w3.org/2000/svg" p-id="3495" xmlns:xlink="http://www.w3.org/1999/xlink" width="200" height="200"><defs><style type="text/css">@font-face { font-family: feedback-iconfont; src: url("//at.alicdn.com/t/font_1031158_u69w8yhxdu.woff2?t=1630033759944") format("woff2"), url("//at.alicdn.com/t/font_1031158_u69w8yhxdu.woff?t=1630033759944") format("woff"), url("//at.alicdn.com/t/font_1031158_u69w8yhxdu.ttf?t=1630033759944") format("truetype"); }
</style></defs><path d="M349.286 166.167h325.542c22.409 0 40.696-18.279 40.696-40.688V44.095H593.445V29.114c0-14.156-11.559-25.715-25.716-25.715H456.386c-14.157 0-25.716 11.559-25.716 25.715v14.981H308.598v81.384c0 22.294 18.279 40.688 40.688 40.688z m0 0" fill="#21f27f" p-id="3496"></path><path d="M878.407 44.095h-81.499v142.362c0 33.617-27.484 61.101-61.101 61.101H288.308c-33.617 0-61.101-27.484-61.101-61.101V44.095h-81.499c-44.703 0-81.269 36.558-81.269 81.263v813.973c0 44.703 36.566 81.269 81.269 81.269h732.583c44.703 0 81.269-36.566 81.269-81.269V125.358c0.115-44.704-36.451-81.263-81.153-81.263zM699.126 538.303L497.668 739.64c-15.804 15.804-41.754 15.804-57.558 0L324.989 624.524c-15.804-15.808-15.804-41.754 0-57.564 15.808-15.802 41.754-15.802 57.564 0l86.336 86.343 172.68-172.68c15.804-15.804 41.756-15.804 57.558 0 15.803 15.924 15.803 41.87-0.001 57.68z m0 0" fill="#21f27f" p-id="3497"></path></svg>