<?xml version="1.0" standalone="no"?><!DOCTYPE svg PUBLIC "-//W3C//DTD SVG 1.1//EN" "http://www.w3.org/Graphics/SVG/1.1/DTD/svg11.dtd"><svg t="1650357751973" class="icon" viewBox="0 0 1151 1024" version="1.1" xmlns="http://www.w3.org/2000/svg" p-id="5479" width="247.28515625" height="220" xmlns:xlink="http://www.w3.org/1999/xlink"><defs><style type="text/css">@font-face { font-family: feedback-iconfont; src: url("//at.alicdn.com/t/font_1031158_u69w8yhxdu.woff2?t=1630033759944") format("woff2"), url("//at.alicdn.com/t/font_1031158_u69w8yhxdu.woff?t=1630033759944") format("woff"), url("//at.alicdn.com/t/font_1031158_u69w8yhxdu.ttf?t=1630033759944") format("truetype"); }
</style></defs><path d="M247.33001601 837.8721919h612.56939645a59.7193947 59.7193947 0 0 0 51.4555416-29.40059443 67.47913537 67.47913537 0 0 0 0-61.21373047L605.08825956 215.52660249A57.61292213 57.61292213 0 0 0 553.63271797 186.12600807a63.01413401 63.01413401 0 0 0-51.45554095 29.40059444L195.91048251 747.20385546A47.0805599 47.0805599 0 0 0 186.11628615 776.60444987v2.44854911a65.22863031 65.22863031 0 0 0 7.34564728 29.40059444A61.48379075 61.48379075 0 0 0 247.33001601 837.8721919z m279.35065725-443.47546965a29.4185985 29.4185985 0 0 1 27.00605691-29.40059444 27.1860975 27.1860975 0 0 1 27.00605751 27.00605753v217.99289432a27.00605751 27.00605751 0 0 1-53.90409067-1e-8z m9.79419637 284.21174733a41.85938862 41.85938862 0 0 1 34.29769326 0 33.99162422 33.99162422 0 0 1 17.15784834 29.40059445 37.35837914 37.35837914 0 0 1-17.15784834 29.40059443 41.85938862 41.85938862 0 0 1-34.29769326 0 33.99162422 33.99162422 0 0 1-17.15784834-29.40059443 37.35837914 37.35837914 0 0 1 17.1758524-29.40059445z" fill="#ffa854" p-id="5480"></path></svg>